<svg width="74" height="74" viewBox="0 0 74 74" fill="none" xmlns="http://www.w3.org/2000/svg">
<g filter="url(#filter0_d_88_12)">
<circle cx="37" cy="31" r="25" fill="white"/>
</g>
<g clip-path="url(#clip0_88_12)">
<path d="M37 22.6666C32.3975 22.6666 28.6667 26.3975 28.6667 31C28.6667 35.1591 31.7142 38.6066 35.6983 39.2325V33.4083H33.5817V31H35.6983V29.1641C35.6983 27.0758 36.9417 25.9225 38.8458 25.9225C39.7575 25.9225 40.7108 26.085 40.7108 26.085V28.135H39.6608C38.625 28.135 38.3025 28.7775 38.3025 29.4366V31H40.6133L40.2442 33.4083H38.3025V39.2325C42.2858 38.6075 45.3333 35.1583 45.3333 31C45.3333 26.3975 41.6025 22.6666 37 22.6666Z" fill="#7C5AC7"/>
</g>
<defs>
<filter id="filter0_d_88_12" x="0" y="0" width="74" height="74" filterUnits="userSpaceOnUse" color-interpolation-filters="sRGB">
<feFlood flood-opacity="0" result="BackgroundImageFix"/>
<feColorMatrix in="SourceAlpha" type="matrix" values="0 0 0 0 0 0 0 0 0 0 0 0 0 0 0 0 0 0 127 0" result="hardAlpha"/>
<feMorphology radius="2" operator="dilate" in="SourceAlpha" result="effect1_dropShadow_88_12"/>
<feOffset dy="6"/>
<feGaussianBlur stdDeviation="5"/>
<feColorMatrix type="matrix" values="0 0 0 0 0 0 0 0 0 0 0 0 0 0 0 0 0 0 0.15 0"/>
<feBlend mode="normal" in2="BackgroundImageFix" result="effect1_dropShadow_88_12"/>
<feBlend mode="normal" in="SourceGraphic" in2="effect1_dropShadow_88_12" result="shape"/>
</filter>
<clipPath id="clip0_88_12">
<rect width="20" height="20" fill="white" transform="translate(27 21)"/>
</clipPath>
</defs>
</svg>
