<svg width="277" height="61" viewBox="0 0 277 61" fill="none" xmlns="http://www.w3.org/2000/svg">
<g filter="url(#filter0_d_0_393)">
<rect width="277" height="60.2174" rx="30.0926" fill="white"/>
</g>
<path d="M49.1774 39.1414V29.1051H57.2064V39.1414H49.1774ZM39.1412 31.1124V21.0762H47.1702V31.1124H39.1412ZM45.1629 29.1051V23.0834H41.1484V29.1051H45.1629ZM39.1412 39.1414V33.1196H47.1702V39.1414H39.1412ZM41.1484 37.1341H45.1629V35.1269H41.1484V37.1341ZM51.1847 37.1341H55.1991V31.1124H51.1847V37.1341ZM49.1774 21.0762H57.2064V27.0979H49.1774V21.0762ZM51.1847 23.0834V25.0906H55.1991V23.0834H51.1847Z" fill="#7C5AC7"/>
<g opacity="0.2">
<path d="M114.446 34.7432L118.744 39.0407L117.324 40.4608L113.027 36.1623C111.428 37.4442 109.439 38.1414 107.389 38.1385C102.403 38.1385 98.3568 34.0918 98.3568 29.1058C98.3568 24.1198 102.403 20.0732 107.389 20.0732C112.375 20.0732 116.422 24.1198 116.422 29.1058C116.425 31.1552 115.728 33.1442 114.446 34.7432ZM112.433 33.9985C113.706 32.6887 114.418 30.9329 114.415 29.1058C114.415 25.2238 111.27 22.0805 107.389 22.0805C103.507 22.0805 100.364 25.2238 100.364 29.1058C100.364 32.9869 103.507 36.1312 107.389 36.1312C109.216 36.1341 110.972 35.4228 112.282 34.1491L112.433 33.9985Z" fill="#7C5AC7"/>
</g>
<g opacity="0.2">
<path d="M160.578 40.1448C160.578 38.0154 161.424 35.9732 162.93 34.4675C164.435 32.9617 166.478 32.1158 168.607 32.1158C170.736 32.1158 172.779 32.9617 174.284 34.4675C175.79 35.9732 176.636 38.0154 176.636 40.1448H174.629C174.629 38.5478 173.994 37.0161 172.865 35.8868C171.736 34.7575 170.204 34.1231 168.607 34.1231C167.01 34.1231 165.478 34.7575 164.349 35.8868C163.22 37.0161 162.585 38.5478 162.585 40.1448H160.578ZM168.607 31.1122C165.28 31.1122 162.585 28.4175 162.585 25.0905C162.585 21.7635 165.28 19.0687 168.607 19.0687C171.934 19.0687 174.629 21.7635 174.629 25.0905C174.629 28.4175 171.934 31.1122 168.607 31.1122ZM168.607 29.105C170.825 29.105 172.621 27.3085 172.621 25.0905C172.621 22.8725 170.825 21.076 168.607 21.076C166.389 21.076 164.593 22.8725 164.593 25.0905C164.593 27.3085 166.389 29.105 168.607 29.105Z" fill="#7C5AC7"/>
</g>
<g opacity="0.2">
<path d="M218.792 30.1091C218.792 29.241 218.902 28.4 219.109 27.5961C219.663 27.6252 220.215 27.5005 220.703 27.2356C221.191 26.9708 221.596 26.5762 221.874 26.0954C222.152 25.6146 222.291 25.0664 222.277 24.5114C222.262 23.9563 222.095 23.4161 221.792 22.9503C223.006 21.7566 224.503 20.8914 226.143 20.4362C226.395 20.9315 226.779 21.3474 227.253 21.6379C227.726 21.9284 228.271 22.0821 228.827 22.0821C229.382 22.0821 229.927 21.9284 230.401 21.6379C230.875 21.3474 231.259 20.9315 231.511 20.4362C233.151 20.8914 234.648 21.7566 235.861 22.9503C235.559 23.4161 235.391 23.9566 235.376 24.5119C235.362 25.0672 235.501 25.6157 235.779 26.0967C236.057 26.5777 236.463 26.9724 236.951 27.2372C237.439 27.502 237.991 27.6266 238.546 27.5971C238.97 29.2452 238.97 30.9741 238.546 32.6222C237.991 32.5929 237.439 32.7175 236.951 32.9822C236.463 33.247 236.058 33.6416 235.78 34.1224C235.502 34.6032 235.363 35.1515 235.377 35.7067C235.391 36.2618 235.559 36.8022 235.861 37.268C234.648 38.4617 233.151 39.3269 231.511 39.7821C231.259 39.2868 230.875 38.8709 230.401 38.5804C229.927 38.2899 229.382 38.1362 228.827 38.1362C228.271 38.1362 227.726 38.2899 227.253 38.5804C226.779 38.8709 226.395 39.2868 226.143 39.7821C224.503 39.3269 223.006 38.4617 221.792 37.268C222.095 36.8022 222.263 36.2617 222.277 35.7064C222.292 35.1511 222.152 34.6026 221.875 34.1216C221.597 33.6406 221.191 33.2459 220.703 32.9811C220.214 32.7163 219.662 32.5917 219.108 32.6212C218.897 31.8004 218.791 30.9565 218.792 30.1091ZM223.613 33.12C224.245 34.215 224.426 35.4745 224.179 36.6568C224.589 36.9478 225.024 37.1997 225.481 37.4095C226.401 36.5854 227.593 36.13 228.828 36.1309C230.092 36.1309 231.275 36.6036 232.175 37.4095C232.632 37.1997 233.067 36.9478 233.477 36.6568C233.223 35.4484 233.425 34.1889 234.043 33.12C234.66 32.0505 235.649 31.2464 236.823 30.8619C236.869 30.3611 236.869 29.8572 236.823 29.3564C235.649 28.9721 234.659 28.168 234.042 27.0983C233.424 26.0293 233.222 24.7699 233.476 23.5615C233.066 23.2704 232.63 23.0184 232.174 22.8088C231.254 23.6327 230.063 24.088 228.828 24.0874C227.593 24.0883 226.401 23.6329 225.481 22.8088C225.024 23.0184 224.588 23.2704 224.179 23.5615C224.433 24.7699 224.231 26.0293 223.613 27.0983C222.996 28.1678 222.006 28.9719 220.833 29.3564C220.787 29.8572 220.787 30.3611 220.833 30.8619C222.007 31.2462 222.997 32.0503 223.614 33.12H223.613ZM228.828 33.12C228.029 33.12 227.263 32.8028 226.699 32.2382C226.134 31.6735 225.817 30.9077 225.817 30.1091C225.817 29.3106 226.134 28.5448 226.699 27.9801C227.263 27.4155 228.029 27.0983 228.828 27.0983C229.626 27.0983 230.392 27.4155 230.957 27.9801C231.521 28.5448 231.839 29.3106 231.839 30.1091C231.839 30.9077 231.521 31.6735 230.957 32.2382C230.392 32.8028 229.626 33.12 228.828 33.12ZM228.828 31.1128C229.094 31.1128 229.349 31.007 229.537 30.8188C229.726 30.6306 229.831 30.3753 229.831 30.1091C229.831 29.843 229.726 29.5877 229.537 29.3995C229.349 29.2113 229.094 29.1055 228.828 29.1055C228.562 29.1055 228.306 29.2113 228.118 29.3995C227.93 29.5877 227.824 29.843 227.824 30.1091C227.824 30.3753 227.93 30.6306 228.118 30.8188C228.306 31.007 228.562 31.1128 228.828 31.1128Z" fill="#7C5AC7"/>
</g>
<circle cx="48.1739" cy="49.3782" r="2.4087" fill="#7C5AC7"/>
<defs>
<filter id="filter0_d_0_393" x="-12.0435" y="-4.81739" width="301.087" height="84.3043" filterUnits="userSpaceOnUse" color-interpolation-filters="sRGB">
<feFlood flood-opacity="0" result="BackgroundImageFix"/>
<feColorMatrix in="SourceAlpha" type="matrix" values="0 0 0 0 0 0 0 0 0 0 0 0 0 0 0 0 0 0 127 0" result="hardAlpha"/>
<feOffset dy="7.22222"/>
<feGaussianBlur stdDeviation="6.01852"/>
<feColorMatrix type="matrix" values="0 0 0 0 0.490196 0 0 0 0 0.34902 0 0 0 0 0.764706 0 0 0 0.1 0"/>
<feBlend mode="normal" in2="BackgroundImageFix" result="effect1_dropShadow_0_393"/>
<feBlend mode="normal" in="SourceGraphic" in2="effect1_dropShadow_0_393" result="shape"/>
</filter>
</defs>
</svg>
