<svg width="50" height="49" viewBox="0 0 50 49" fill="none" xmlns="http://www.w3.org/2000/svg">
<path d="M24.9999 8.85419C27.0134 8.85419 28.6457 7.22189 28.6457 5.20835C28.6457 3.1948 27.0134 1.5625 24.9999 1.5625C22.9864 1.5625 21.3541 3.1948 21.3541 5.20835C21.3541 7.22189 22.9864 8.85419 24.9999 8.85419Z" fill="white"/>
<path d="M16.146 19.2709V18.2292C16.146 15.9271 18.0106 14.0625 20.3127 14.0625H29.6877C31.9898 14.0625 33.8544 15.9271 33.8544 18.2292V19.2709H16.146Z" fill="#CF91A4"/>
<path d="M39.5834 38.0209C41.597 38.0209 43.2293 36.3886 43.2293 34.375C43.2293 32.3615 41.597 30.7292 39.5834 30.7292C37.5699 30.7292 35.9376 32.3615 35.9376 34.375C35.9376 36.3886 37.5699 38.0209 39.5834 38.0209Z" fill="white"/>
<path d="M30.7291 48.4377V47.396C30.7291 45.0939 32.5937 43.2294 34.8958 43.2294H44.2708C46.5729 43.2294 48.4375 45.0939 48.4375 47.396V48.4377H30.7291Z" fill="#CF91A4"/>
<path d="M10.4169 38.0209C12.4304 38.0209 14.0627 36.3886 14.0627 34.375C14.0627 32.3615 12.4304 30.7292 10.4169 30.7292C8.40331 30.7292 6.77101 32.3615 6.77101 34.375C6.77101 36.3886 8.40331 38.0209 10.4169 38.0209Z" fill="white"/>
<path d="M1.5625 48.4377V47.396C1.5625 45.0939 3.42709 43.2294 5.72918 43.2294H15.1042C17.4063 43.2294 19.2709 45.0939 19.2709 47.396V48.4377H1.5625Z" fill="#CF91A4"/>
<path d="M9.89586 43.2294H5.72918C3.42709 43.2294 1.5625 45.0939 1.5625 47.396V48.4377H5.72918V47.396C5.72918 45.0939 7.59377 43.2294 9.89586 43.2294Z" fill="#9E2349"/>
<path d="M39.0624 43.2294H34.8958C32.5937 43.2294 30.7291 45.0939 30.7291 47.396V48.4377H34.8958V47.396C34.8958 45.0939 36.7603 43.2294 39.0624 43.2294Z" fill="#9E2349"/>
<path d="M24.4794 14.0625H20.3127C18.0106 14.0625 16.146 15.9271 16.146 18.2292V19.2709H20.3127V18.2292C20.3127 15.9271 22.1773 14.0625 24.4794 14.0625Z" fill="#9E2349"/>
<path d="M25.5207 5.20835C25.5207 3.97085 26.1395 2.88126 27.0832 2.22292C26.4916 1.81042 25.7749 1.5625 24.9999 1.5625C22.9874 1.5625 21.3541 3.19584 21.3541 5.20835C21.3541 7.22086 22.9874 8.85419 24.9999 8.85419C25.7749 8.85419 26.4916 8.60836 27.0832 8.19378C26.1395 7.53544 25.5207 6.44585 25.5207 5.20835Z" fill="white"/>
<path d="M10.9377 34.375C10.9377 33.1375 11.5564 32.048 12.5002 31.3896C11.9085 30.9771 11.1919 30.7292 10.4169 30.7292C8.40435 30.7292 6.77101 32.3625 6.77101 34.375C6.77101 36.3876 8.40435 38.0209 10.4169 38.0209C11.1919 38.0209 11.9085 37.7751 12.5002 37.3605C11.5564 36.7021 10.9377 35.6125 10.9377 34.375Z" fill="white"/>
<path d="M40.1043 34.375C40.1043 33.1375 40.723 32.048 41.6668 31.3896C41.0751 30.9771 40.3584 30.7292 39.5834 30.7292C37.5709 30.7292 35.9376 32.3625 35.9376 34.375C35.9376 36.3876 37.5709 38.0209 39.5834 38.0209C40.3584 38.0209 41.0751 37.7751 41.6668 37.3605C40.723 36.7021 40.1043 35.6125 40.1043 34.375Z" fill="white"/>
<path d="M24.9999 10.4167C22.1291 10.4167 19.7916 8.07919 19.7916 5.20835C19.7916 2.33751 22.1291 0 24.9999 0C27.8707 0 30.2082 2.33751 30.2082 5.20835C30.2082 8.07919 27.8707 10.4167 24.9999 10.4167ZM24.9999 3.12501C23.852 3.12501 22.9166 4.06043 22.9166 5.20835C22.9166 6.35627 23.852 7.29168 24.9999 7.29168C26.1478 7.29168 27.0832 6.35627 27.0832 5.20835C27.0832 4.06043 26.1478 3.12501 24.9999 3.12501Z" fill="#2F3130"/>
<path d="M35.4169 19.271H32.2919V18.2293C32.2919 16.7939 31.1232 15.6252 29.6877 15.6252H20.3127C18.8773 15.6252 17.7085 16.7939 17.7085 18.2293V19.271H14.5835V18.2293C14.5835 15.0689 17.1523 12.5002 20.3127 12.5002H29.6877C32.8482 12.5002 35.4169 15.0689 35.4169 18.2293V19.271Z" fill="#2F3130"/>
<path d="M39.5834 39.5835C36.7126 39.5835 34.3751 37.246 34.3751 34.3752C34.3751 31.5043 36.7126 29.1668 39.5834 29.1668C42.4543 29.1668 44.7918 31.5043 44.7918 34.3752C44.7918 37.246 42.4543 39.5835 39.5834 39.5835ZM39.5834 32.2918C38.4355 32.2918 37.5001 33.2272 37.5001 34.3752C37.5001 35.5231 38.4355 36.4585 39.5834 36.4585C40.7314 36.4585 41.6668 35.5231 41.6668 34.3752C41.6668 33.2272 40.7314 32.2918 39.5834 32.2918Z" fill="#2F3130"/>
<path d="M50 48.4376H46.875V47.3959C46.875 45.9605 45.7062 44.7917 44.2708 44.7917H34.8958C33.4603 44.7917 32.2916 45.9605 32.2916 47.3959V48.4376H29.1666V47.3959C29.1666 44.2355 31.7353 41.6667 34.8958 41.6667H44.2708C47.4312 41.6667 50 44.2355 50 47.3959V48.4376Z" fill="#2F3130"/>
<path d="M10.4169 39.5835C7.54601 39.5835 5.20851 37.246 5.20851 34.3752C5.20851 31.5043 7.54601 29.1668 10.4169 29.1668C13.2877 29.1668 15.6252 31.5043 15.6252 34.3752C15.6252 37.246 13.2877 39.5835 10.4169 39.5835ZM10.4169 32.2918C9.26894 32.2918 8.33352 33.2272 8.33352 34.3752C8.33352 35.5231 9.26894 36.4585 10.4169 36.4585C11.5648 36.4585 12.5002 35.5231 12.5002 34.3752C12.5002 33.2272 11.5648 32.2918 10.4169 32.2918Z" fill="#2F3130"/>
<path d="M20.8334 48.4376H17.7084V47.3959C17.7084 45.9605 16.5396 44.7917 15.1042 44.7917H5.72918C4.29376 44.7917 3.12501 45.9605 3.12501 47.3959V48.4376H0V47.3959C0 44.2355 2.56876 41.6667 5.72918 41.6667H15.1042C18.2646 41.6667 20.8334 44.2355 20.8334 47.3959V48.4376Z" fill="#2F3130"/>
<path d="M7.29152 25.0252H4.16651C4.16651 16.9502 8.89986 9.5314 16.2249 6.12514L17.5436 8.95848C11.3144 11.8543 7.29152 18.1606 7.29152 25.0252Z" fill="#2F3130"/>
<path d="M45.8332 25.0252H42.7082C42.7082 18.1606 38.6853 11.8543 32.4582 8.95848L33.777 6.12514C41.0999 9.5314 45.8332 16.9502 45.8332 25.0252Z" fill="#2F3130"/>
<path d="M25 45.8585C24.2625 45.8585 23.5375 45.8189 22.8209 45.746L23.1459 42.6376C24.4021 42.7689 25.7146 42.7605 26.9729 42.6251L27.3146 45.7314C26.5563 45.8147 25.7834 45.8585 25 45.8585Z" fill="#2F3130"/>
</svg>
