<svg width="90" height="54" viewBox="0 0 90 54" fill="none" xmlns="http://www.w3.org/2000/svg">
<path d="M65.8915 35.1458C74.6883 33.7224 83.2149 36.0376 89.9998 40.9651C84.9524 47.5179 77.6577 52.1978 69.1004 53.5842C60.3017 55.0098 51.777 52.6925 44.9921 47.7649C50.0395 41.2122 57.3361 36.5323 65.8915 35.1458Z" fill="#322D76"/>
<path d="M65.8915 35.1458C74.6883 33.7224 83.2149 36.0376 89.9998 40.9651C84.9524 47.5179 77.6577 52.1978 69.1004 53.5842C60.3017 55.0098 51.777 52.6925 44.9921 47.7649C50.0395 41.2122 57.3361 36.5323 65.8915 35.1458Z" stroke="white"/>
<path d="M0 40.8459C6.6123 36.0708 14.872 33.7608 23.453 34.9866C32.2752 36.2473 39.8211 41.0142 44.992 47.7648C38.3798 52.54 30.1181 54.8499 21.539 53.6242C12.7207 52.3614 5.17296 47.5944 0 40.8459Z" fill="#322D76"/>
<path d="M0 40.8459C6.6123 36.0708 14.872 33.7608 23.453 34.9866C32.2752 36.2473 39.8211 41.0142 44.992 47.7648C38.3798 52.54 30.1181 54.8499 21.539 53.6242C12.7207 52.3614 5.17296 47.5944 0 40.8459Z" stroke="white"/>
<g opacity="0.8">
<path d="M74.9065 11.7875C75.1457 20.215 72.5158 28.7579 66.886 35.6692C61.0973 42.7743 53.1942 46.8554 44.9935 47.7659C44.7543 39.3384 47.3842 30.7955 53.014 23.8841C58.8008 16.7791 66.7039 12.696 74.9065 11.7875Z" fill="#A6244B"/>
<path d="M74.9065 11.7875C75.1457 20.215 72.5158 28.7579 66.886 35.6692C61.0973 42.7743 53.1942 46.8554 44.9935 47.7659C44.7543 39.3384 47.3842 30.7955 53.014 23.8841C58.8008 16.7791 66.7039 12.696 74.9065 11.7875Z" stroke="white"/>
</g>
<g opacity="0.8">
<path d="M15.5951 11.32C23.5623 12.3315 31.2102 16.3362 36.8753 23.2165C42.6993 30.2906 45.3611 39.1081 44.9925 47.7643C37.0252 46.7528 29.3755 42.7452 23.7123 35.8668C17.8883 28.7948 15.2265 19.9762 15.5951 11.32Z" fill="#A6244B"/>
<path d="M15.5951 11.32C23.5623 12.3315 31.2102 16.3362 36.8753 23.2165C42.6993 30.2906 45.3611 39.1081 44.9925 47.7643C37.0252 46.7528 29.3755 42.7452 23.7123 35.8668C17.8883 28.7948 15.2265 19.9762 15.5951 11.32Z" stroke="white"/>
</g>
<path d="M45.4526 0C50.849 6.23974 54.14 14.525 54.14 23.622C54.14 32.9745 50.6607 41.4721 44.9916 47.7655C39.5953 41.5257 36.3051 33.2383 36.3051 24.1435C36.3051 14.7931 39.7836 6.29335 45.4526 0Z" fill="#765EA8"/>
<path d="M45.4526 0C50.849 6.23974 54.14 14.525 54.14 23.622C54.14 32.9745 50.6607 41.4721 44.9916 47.7655C39.5953 41.5257 36.3051 33.2383 36.3051 24.1435C36.3051 14.7931 39.7836 6.29335 45.4526 0Z" stroke="white"/>
</svg>
