<svg width="17" height="20" viewBox="0 0 17 20" fill="none" xmlns="http://www.w3.org/2000/svg">
<path d="M13.046 13.817L13.2119 13.9838L13.3797 13.817C13.5766 13.6201 13.8104 13.4639 14.0677 13.3573C14.325 13.2507 14.6008 13.1958 14.8793 13.1958C15.1578 13.1958 15.4336 13.2507 15.6909 13.3573C15.9482 13.4639 16.182 13.6201 16.3789 13.817C16.5758 14.0139 16.732 14.2477 16.8386 14.505C16.9452 14.7623 17 15.0381 17 15.3166C17 15.5951 16.9452 15.8709 16.8386 16.1282C16.732 16.3855 16.5758 16.6193 16.3789 16.8162L13.2119 19.9823L10.0468 16.8162C9.64904 16.4185 9.4256 15.8791 9.4256 15.3166C9.4256 14.7541 9.64904 14.2147 10.0468 13.817C10.4445 13.4193 10.9839 13.1958 11.5464 13.1958C12.1088 13.1958 12.6483 13.4193 13.046 13.817ZM7.54049 12.2533V14.1384C6.04059 14.1384 4.60213 14.7342 3.54154 15.7948C2.48095 16.8554 1.88512 18.2939 1.88512 19.7938H0C2.27239e-05 17.8347 0.762473 15.9526 2.12592 14.5459C3.48936 13.1392 5.34676 12.3183 7.30485 12.2571L7.54049 12.2533ZM7.54049 0C10.6651 0 13.1959 2.53078 13.1959 5.65537C13.1964 7.11872 12.6295 8.52527 11.6143 9.57926C10.5992 10.6332 9.21491 11.2526 7.75257 11.307L7.54049 11.3107C4.4159 11.3107 1.88512 8.77996 1.88512 5.65537C1.8846 4.19201 2.45151 2.78546 3.46665 1.73147C4.48179 0.677485 5.86607 0.0581762 7.32841 0.0037702L7.54049 0ZM7.54049 1.88512C5.45743 1.88512 3.77024 3.57231 3.77024 5.65537C3.77024 7.73843 5.45743 9.42561 7.54049 9.42561C9.62355 9.42561 11.3107 7.73843 11.3107 5.65537C11.3107 3.57231 9.62355 1.88512 7.54049 1.88512Z" fill="#37B369"/>
</svg>
