<svg width="51" height="32" viewBox="0 0 51 32" fill="none" xmlns="http://www.w3.org/2000/svg">
<path d="M36.6127 15.4123H14.368C12.9118 15.4123 11.8722 14.124 12.3016 12.8549L15.6477 2.98466C15.9283 2.15771 16.7659 1.59436 17.714 1.59436H33.2666C34.2147 1.59436 35.0523 2.15771 35.3329 2.98466L38.679 12.8549C39.1084 14.124 38.0689 15.4123 36.6127 15.4123Z" fill="#CF91A4"/>
<path d="M24.0448 30.2931C25.3862 30.2931 26.3428 29.0091 25.9559 27.7272L22.865 17.857C22.6205 17.0471 21.8488 16.4752 20.9751 16.4752H6.66399C5.79027 16.4752 5.01647 17.0471 4.77412 17.857L1.68104 27.7272C1.29413 29.0112 2.25076 30.2931 3.59216 30.2931H24.0448Z" fill="white"/>
<path d="M25.5118 29.6554C25.852 30.038 26.3834 30.2931 26.9574 30.2931H47.4079C48.7472 30.2931 49.7038 29.0176 49.3211 27.7209L46.2387 17.857C45.9836 17.0492 45.2183 16.4752 44.3467 16.4752H30.0186C29.147 16.4752 28.3817 17.0492 28.1266 17.857L25.5118 26.254V29.6554Z" fill="white"/>
<path d="M16.5531 12.8549L19.8992 2.98466C20.1798 2.15771 21.0173 1.59436 21.9655 1.59436H17.7138C16.7657 1.59436 15.9281 2.15771 15.6475 2.98466L12.3014 12.8549C11.8699 14.124 12.9115 15.4123 14.3677 15.4123H18.6194C17.1632 15.4123 16.1237 14.124 16.5531 12.8549Z" fill="#9E2349"/>
<path d="M5.9327 27.7272L9.02366 17.857C9.26813 17.0471 10.0398 16.4752 10.9135 16.4752H6.66186C5.78814 16.4752 5.01434 17.0471 4.77199 17.857L1.68104 27.7272C1.29413 29.0112 2.25076 30.2931 3.59216 30.2931H7.84382C6.50242 30.2931 5.54792 29.0091 5.9327 27.7272Z" fill="white"/>
<path d="M29.7635 26.254L32.3783 17.857C32.6334 17.0492 33.3987 16.4752 34.2703 16.4752H30.0186C29.147 16.4752 28.3817 17.0492 28.1266 17.857L25.5118 26.254V29.6554C25.852 30.038 26.3834 30.2931 26.9574 30.2931H31.2091C30.6351 30.2931 30.1036 30.038 29.7635 29.6554V26.254Z" fill="white"/>
<path d="M36.6125 17.0067H14.3678C13.1242 17.0067 11.9614 16.4242 11.262 15.4484C10.6051 14.5322 10.4329 13.3991 10.7921 12.3426L14.1382 2.47234C14.6399 0.99489 16.077 0 17.7139 0H27.2801V3.18875H17.7139C17.4205 3.18875 17.21 3.34606 17.159 3.49699L13.813 13.3694C13.8002 13.4055 13.7747 13.482 13.8533 13.5904C13.8916 13.6436 14.0425 13.8179 14.3678 13.8179H36.6125C36.9377 13.8179 37.0887 13.6436 37.1269 13.5904C37.2056 13.4799 37.1801 13.4034 37.1673 13.3694L33.8213 3.49912C33.7703 3.34818 33.5577 3.18875 33.2664 3.18875H31.3362V0H33.2664C34.9055 0 36.3425 0.994888 36.8421 2.47447L40.1881 12.3426C40.5453 13.3991 40.3752 14.5322 39.7183 15.4484C39.0189 16.4242 37.8561 17.0067 36.6125 17.0067Z" fill="#2F3130"/>
<path d="M24.0449 31.8875H3.59224C2.44217 31.8875 1.39201 31.3603 0.709616 30.4398C0.0272245 29.5215 -0.17473 28.365 0.154774 27.2681L3.24998 17.383C3.69216 15.9161 5.09733 14.8809 6.66407 14.8809H20.9752C22.5398 14.8809 23.9449 15.9161 24.3914 17.3978L27.476 27.2532C27.8118 28.365 27.6099 29.5215 26.9296 30.4419C26.2472 31.3603 25.1949 31.8875 24.0449 31.8875ZM6.66407 18.0696C6.49825 18.0696 6.34307 18.1759 6.30055 18.3183L3.20534 28.2013C3.1607 28.3437 3.21597 28.4649 3.26912 28.5372C3.32226 28.6095 3.42218 28.6988 3.59224 28.6988H24.0449C24.2149 28.6988 24.3148 28.6116 24.3701 28.5393C24.4233 28.467 24.4764 28.348 24.4296 28.1886L21.3429 18.3332C21.2962 18.1759 21.1389 18.0696 20.9752 18.0696H6.66407Z" fill="#2F3130"/>
<path d="M47.408 31.8875H26.9575C25.9457 31.8875 24.9848 31.4602 24.3215 30.7162L26.7024 28.5946C26.7386 28.6371 26.8385 28.6988 26.9575 28.6988H47.408C47.5781 28.6988 47.678 28.6137 47.7312 28.5415C47.7864 28.467 47.8417 28.3437 47.7907 28.1716L44.7146 18.3332C44.6679 18.1823 44.5105 18.0696 44.3447 18.0696H30.0166C29.8508 18.0696 29.6956 18.1823 29.6467 18.3353L27.032 26.726L23.9878 25.78L26.6025 17.3851C27.0681 15.9076 28.4711 14.8809 30.0187 14.8809H44.3469C45.8945 14.8809 47.2975 15.9076 47.7588 17.3808L50.8434 27.2468C51.1772 28.3756 50.9709 29.5342 50.2864 30.4504C49.604 31.3646 48.5539 31.8875 47.408 31.8875Z" fill="#2F3130"/>
<path d="M20.0955 11.6602L17.0661 10.6589L18.82 5.34432C19.0368 4.69381 19.6469 4.25164 20.3357 4.25164H28.1481V7.44038H21.49L20.0955 11.6602Z" fill="#2F3130"/>
<path d="M9.46636 26.5411L6.43705 25.5399L8.19086 20.2253C8.4077 19.5748 9.01781 19.1326 9.70658 19.1326H17.519V22.3214H10.8609L9.46636 26.5411Z" fill="#2F3130"/>
<path d="M32.8498 26.5411L29.8205 25.5399L31.5743 20.2253C31.7912 19.5748 32.4013 19.1326 33.09 19.1326H40.9025V22.3214H34.2444L32.8498 26.5411Z" fill="#2F3130"/>
</svg>
