<svg width="60" height="45" viewBox="0 0 60 45" fill="none" xmlns="http://www.w3.org/2000/svg">
<path d="M42.1874 31.406C44.5173 31.406 46.4061 29.5172 46.4061 27.1873C46.4061 24.8574 44.5173 22.9686 42.1874 22.9686C39.8574 22.9686 37.9686 24.8574 37.9686 27.1873C37.9686 29.5172 39.8574 31.406 42.1874 31.406Z" fill="white"/>
<path d="M51.0936 45V40.7813C51.0936 38.7094 49.4155 37.0313 47.3436 37.0313H37.0312C34.9593 37.0313 33.2812 38.7094 33.2812 40.7813V45H51.0936Z" fill="white"/>
<path d="M15 34.2188C16.2944 34.2188 17.3437 33.1695 17.3437 31.875C17.3437 30.5806 16.2944 29.5313 15 29.5313C13.7055 29.5313 12.6562 30.5806 12.6562 31.875C12.6562 33.1695 13.7055 34.2188 15 34.2188Z" fill="white"/>
<path d="M21.0937 45V42.6563C21.0937 40.5844 19.4156 38.9063 17.3437 38.9063H12.6562C10.5843 38.9063 8.90623 40.5844 8.90623 42.6563V45H21.0937Z" fill="white"/>
<path d="M8.90623 5.15624V19.2187C8.90623 21.2812 10.5937 22.9687 12.6562 22.9687H22.4999L28.5937 28.5937V22.9687H30.4687C32.5312 22.9687 34.2187 21.2812 34.2187 19.2187V5.15624C34.2187 3.09374 32.5312 1.40625 30.4687 1.40625H12.6562C10.5937 1.40625 8.90623 3.09374 8.90623 5.15624Z" fill="#CF91A4"/>
<path d="M42.1874 27.1873C42.1874 25.6292 43.0405 24.2848 44.2968 23.5536C43.6743 23.1917 42.9599 22.9686 42.1874 22.9686C39.8568 22.9686 37.9686 24.8567 37.9686 27.1873C37.9686 29.5179 39.8568 31.406 42.1874 31.406C42.9599 31.406 43.6743 31.1829 44.2968 30.821C43.0405 30.0898 42.1874 28.7454 42.1874 27.1873Z" fill="white"/>
<path d="M41.2499 37.0313H37.0311C34.9593 37.0313 33.2812 38.7094 33.2812 40.7813V45H37.4999V40.7813C37.4999 38.7094 39.178 37.0313 41.2499 37.0313Z" fill="white"/>
<path d="M16.875 31.875C16.875 31.5188 16.9668 31.1907 17.1093 30.8888C16.7343 30.0919 15.9375 29.5313 15 29.5313C13.7062 29.5313 12.6562 30.5813 12.6562 31.875C12.6562 33.1688 13.7062 34.2188 15 34.2188C15.9375 34.2188 16.7343 33.6582 17.1093 32.8613C16.9668 32.5594 16.875 32.2313 16.875 31.875Z" fill="white"/>
<path d="M16.875 38.9063H12.6562C10.5843 38.9063 8.90623 40.5844 8.90623 42.6563V45H13.125V42.6563C13.125 40.5844 14.8031 38.9063 16.875 38.9063Z" fill="white"/>
<path d="M26.7187 22.9686H22.4999L28.5937 28.5936V24.6992L26.7187 22.9686Z" fill="#9E2349"/>
<path d="M13.125 19.2187V5.15624C13.125 3.09374 14.8125 1.40625 16.875 1.40625H12.6562C10.5937 1.40625 8.90623 3.09374 8.90623 5.15624V19.2187C8.90623 21.2812 10.5937 22.9687 12.6562 22.9687H16.875C14.8125 22.9687 13.125 21.2812 13.125 19.2187Z" fill="#9E2349"/>
<path d="M42.1874 32.8124C39.0861 32.8124 36.5624 30.2887 36.5624 27.1874C36.5624 24.0862 39.0861 21.5624 42.1874 21.5624C45.2886 21.5624 47.8124 24.0862 47.8124 27.1874C47.8124 30.2887 45.2886 32.8124 42.1874 32.8124ZM42.1874 24.3749C40.6368 24.3749 39.3749 25.6368 39.3749 27.1874C39.3749 28.738 40.6368 29.9999 42.1874 29.9999C43.738 29.9999 44.9999 28.738 44.9999 27.1874C44.9999 25.6368 43.738 24.3749 42.1874 24.3749Z" fill="#2F3130"/>
<path d="M52.4998 44.9998H49.6874V40.781C49.6874 39.4891 48.6355 38.4373 47.3436 38.4373H37.0311C35.7393 38.4373 34.6874 39.4891 34.6874 40.781V44.9998H31.8749V40.781C31.8749 37.9367 34.1868 35.6248 37.0311 35.6248H47.3436C50.188 35.6248 52.4998 37.9367 52.4998 40.781V44.9998Z" fill="#2F3130"/>
<path d="M28.5937 29.9999C28.2468 29.9999 27.9056 29.8724 27.6393 29.6268L21.9506 24.3749H12.6562C9.81185 24.3749 7.49998 22.0631 7.49998 19.2187V5.15624C7.49998 2.31187 9.81185 0 12.6562 0H30.4687C33.313 0 35.6249 2.31187 35.6249 5.15624V19.2187C35.6249 22.0631 33.313 24.3749 30.4687 24.3749H29.9999V28.5937C29.9999 29.1524 29.668 29.6568 29.158 29.8837C28.9762 29.9605 28.7849 29.9999 28.5937 29.9999ZM12.6562 2.81249C11.3643 2.81249 10.3125 3.86436 10.3125 5.15624V19.2187C10.3125 20.5106 11.3643 21.5624 12.6562 21.5624H22.4999C22.8524 21.5624 23.1937 21.6956 23.4543 21.9356L27.1874 25.3818V22.9687C27.1874 22.1924 27.8174 21.5624 28.5937 21.5624H30.4687C31.7605 21.5624 32.8124 20.5106 32.8124 19.2187V5.15624C32.8124 3.86436 31.7605 2.81249 30.4687 2.81249H12.6562Z" fill="#2F3130"/>
<path d="M22.9687 16.4062H20.1562V14.5706C20.1562 12.8081 21.0712 11.1243 22.6687 9.95247C23.1581 9.59435 23.4374 9.0431 23.4374 8.43748C23.4374 7.40248 22.5974 6.56248 21.5624 6.56248C20.5274 6.56248 19.6874 7.40248 19.6874 8.43748V9.84372H16.875V8.43748C16.875 5.85186 18.9768 3.74999 21.5624 3.74999C24.1481 3.74999 26.2499 5.85186 26.2499 8.43748C26.2499 9.92622 25.5318 11.34 24.3318 12.2212C23.8237 12.5925 22.9687 13.395 22.9687 14.5706V16.4062Z" fill="#2F3130"/>
<path d="M15 35.6248C12.9318 35.6248 11.25 33.9429 11.25 31.8748C11.25 29.8067 12.9318 28.1248 15 28.1248C17.0681 28.1248 18.75 29.8067 18.75 31.8748C18.75 33.9429 17.0681 35.6248 15 35.6248ZM15 30.9373C14.4843 30.9373 14.0625 31.3592 14.0625 31.8748C14.0625 32.3904 14.4843 32.8123 15 32.8123C15.5156 32.8123 15.9375 32.3904 15.9375 31.8748C15.9375 31.3592 15.5156 30.9373 15 30.9373Z" fill="#2F3130"/>
<path d="M22.4999 44.9998H19.6875V42.656C19.6875 41.3641 18.6356 40.3123 17.3437 40.3123H12.6562C11.3643 40.3123 10.3125 41.3641 10.3125 42.656V44.9998H7.49998V42.656C7.49998 39.8116 9.81185 37.4998 12.6562 37.4998H17.3437C20.1881 37.4998 22.4999 39.8116 22.4999 42.656V44.9998Z" fill="#2F3130"/>
<path d="M21.5624 20.6251C22.3391 20.6251 22.9687 19.9955 22.9687 19.2188C22.9687 18.4422 22.3391 17.8126 21.5624 17.8126C20.7858 17.8126 20.1562 18.4422 20.1562 19.2188C20.1562 19.9955 20.7858 20.6251 21.5624 20.6251Z" fill="#2F3130"/>
<path d="M0 42.1875H59.9998V45H0V42.1875Z" fill="#2F3130"/>
</svg>
