<svg width="200" height="461" viewBox="0 0 200 461" fill="none" xmlns="http://www.w3.org/2000/svg">
<path d="M10.0501 8.94778V4.47393H18.0903V8.94778H10.0501ZM0 5.3687V0.894844H8.04012V5.3687H0ZM6.03009 4.47393V1.78961H2.01003V4.47393H6.03009ZM0 8.94778V6.26347H8.04012V8.94778H0ZM2.01003 8.05301H6.03009V7.15824H2.01003V8.05301ZM12.0602 8.05301H16.0802V5.3687H12.0602V8.05301ZM10.0501 0.894844H18.0903V3.57916H10.0501V0.894844ZM12.0602 1.78961V2.68439H16.0802V1.78961H12.0602Z" fill="#7C5AC7"/>
<g opacity="0.2">
<path d="M75.4091 6.98722L79.7136 8.90293L78.2915 9.53598L73.988 7.61983C72.3868 8.19124 70.3951 8.50203 68.3428 8.50073C63.3499 8.50073 59.2977 6.69687 59.2977 4.47426C59.2977 2.25165 63.3499 0.447789 68.3428 0.447789C73.3358 0.447789 77.388 2.25165 77.388 4.47426C77.3909 5.38782 76.6927 6.27442 75.4091 6.98722ZM73.393 6.65526C74.6685 6.07137 75.3808 5.28869 75.3779 4.47426C75.3779 2.74377 72.2292 1.34256 68.3428 1.34256C64.4554 1.34256 61.3077 2.74377 61.3077 4.47426C61.3077 6.2043 64.4554 7.60596 68.3428 7.60596C70.1724 7.60724 71.9306 7.29015 73.2423 6.72237L73.393 6.65526Z" fill="#7C5AC7"/>
</g>
<g opacity="0.2">
<path d="M121.605 9.3951C121.605 8.44586 122.452 7.53551 123.96 6.8643C125.468 6.19309 127.513 5.81601 129.645 5.81601C131.778 5.81601 133.823 6.19309 135.33 6.8643C136.838 7.53551 137.685 8.44586 137.685 9.3951H135.675C135.675 8.68317 135.04 8.00041 133.909 7.497C132.778 6.99359 131.244 6.71078 129.645 6.71078C128.046 6.71078 126.512 6.99359 125.381 7.497C124.25 8.00041 123.615 8.68317 123.615 9.3951H121.605ZM129.645 5.36863C126.314 5.36863 123.615 4.1674 123.615 2.68431C123.615 1.20123 126.314 0 129.645 0C132.977 0 135.675 1.20123 135.675 2.68431C135.675 4.1674 132.977 5.36863 129.645 5.36863ZM129.645 4.47385C131.866 4.47385 133.665 3.67303 133.665 2.68431C133.665 1.69559 131.866 0.894771 129.645 0.894771C127.424 0.894771 125.625 1.69559 125.625 2.68431C125.625 3.67303 127.424 4.47385 129.645 4.47385Z" fill="#7C5AC7"/>
</g>
<g opacity="0.2">
<path d="M179.899 4.9215C179.899 4.53451 180.01 4.1596 180.217 3.80125C180.772 3.81424 181.325 3.75863 181.813 3.64058C182.302 3.52252 182.708 3.34661 182.986 3.13229C183.264 2.91797 183.404 2.6736 183.389 2.42617C183.375 2.17875 183.207 1.93792 182.904 1.7303C184.119 1.19816 185.619 0.812486 187.261 0.609598C187.513 0.830371 187.898 1.01576 188.372 1.14526C188.847 1.27475 189.392 1.34329 189.949 1.34329C190.505 1.34329 191.051 1.27475 191.525 1.14526C191.999 1.01576 192.384 0.830371 192.636 0.609598C194.278 0.812486 195.778 1.19816 196.993 1.7303C196.69 1.93795 196.522 2.17888 196.507 2.42642C196.493 2.67395 196.632 2.91845 196.91 3.13286C197.189 3.34727 197.595 3.52323 198.084 3.64127C198.573 3.75931 199.126 3.81483 199.681 3.80169C200.106 4.53639 200.106 5.30706 199.681 6.04175C199.126 6.02867 198.573 6.08421 198.084 6.20224C197.596 6.32026 197.19 6.49616 196.911 6.7105C196.633 6.92483 196.493 7.16924 196.508 7.41671C196.522 7.66417 196.69 7.90505 196.993 8.1127C195.778 8.64483 194.278 9.03051 192.636 9.2334C192.384 9.01263 191.999 8.82723 191.525 8.69774C191.051 8.56825 190.505 8.49971 189.949 8.49971C189.392 8.49971 188.847 8.56825 188.372 8.69774C187.898 8.82723 187.513 9.01263 187.261 9.2334C185.619 9.03051 184.119 8.64483 182.904 8.1127C183.207 7.90504 183.376 7.66412 183.39 7.41658C183.405 7.16905 183.265 6.92455 182.987 6.71014C182.708 6.49573 182.302 6.31977 181.813 6.20173C181.324 6.08369 180.771 6.02817 180.216 6.04131C180.005 5.67543 179.899 5.2992 179.899 4.9215ZM184.728 6.26366C185.361 6.75175 185.542 7.31322 185.294 7.84024C185.704 7.96998 186.141 8.08228 186.598 8.17578C187.519 7.80841 188.713 7.60543 189.95 7.60581C191.216 7.60581 192.4 7.81653 193.301 8.17578C193.759 8.08228 194.195 7.96998 194.605 7.84024C194.351 7.30157 194.553 6.74015 195.172 6.26366C195.789 5.78691 196.781 5.42846 197.956 5.25704C198.002 5.03382 198.002 4.80918 197.956 4.58596C196.78 4.41464 195.789 4.05617 195.171 3.57934C194.552 3.10285 194.35 2.54142 194.604 2.00276C194.194 1.87298 193.757 1.76064 193.3 1.66722C192.379 2.03449 191.186 2.23746 189.95 2.23719C188.713 2.23757 187.519 2.03459 186.598 1.66722C186.141 1.76064 185.704 1.87298 185.294 2.00276C185.548 2.54142 185.346 3.10285 184.728 3.57934C184.11 4.05609 183.118 4.41454 181.944 4.58596C181.897 4.80918 181.897 5.03382 181.944 5.25704C183.119 5.42836 184.111 5.78683 184.729 6.26366H184.728ZM189.95 6.26366C189.15 6.26366 188.383 6.12225 187.818 5.87055C187.252 5.61884 186.935 5.27746 186.935 4.9215C186.935 4.56554 187.252 4.22415 187.818 3.97245C188.383 3.72075 189.15 3.57934 189.95 3.57934C190.749 3.57934 191.516 3.72075 192.082 3.97245C192.647 4.22415 192.965 4.56554 192.965 4.9215C192.965 5.27746 192.647 5.61884 192.082 5.87055C191.516 6.12225 190.749 6.26366 189.95 6.26366ZM189.95 5.36889C190.216 5.36889 190.472 5.32175 190.66 5.23785C190.849 5.15395 190.955 5.04015 190.955 4.9215C190.955 4.80285 190.849 4.68905 190.66 4.60515C190.472 4.52125 190.216 4.47411 189.95 4.47411C189.683 4.47411 189.427 4.52125 189.239 4.60515C189.05 4.68905 188.945 4.80285 188.945 4.9215C188.945 5.04015 189.05 5.15395 189.239 5.23785C189.427 5.32175 189.683 5.36889 189.95 5.36889Z" fill="#7C5AC7"/>
</g>
<circle cx="9.04524" cy="458.478" r="2.41203" fill="#7C5AC7"/>
</svg>
