<svg width="74" height="74" viewBox="0 0 74 74" fill="none" xmlns="http://www.w3.org/2000/svg">
<g filter="url(#filter0_d_88_24)">
<circle cx="37" cy="31" r="25" fill="white"/>
</g>
<g clip-path="url(#clip0_88_24)">
<path d="M32.7833 25.1666C32.7831 25.6087 32.6073 26.0325 32.2946 26.3449C31.9819 26.6573 31.5579 26.8327 31.1158 26.8325C30.6738 26.8323 30.25 26.6565 29.9376 26.3437C29.6252 26.031 29.4498 25.607 29.45 25.165C29.4502 24.723 29.626 24.2991 29.9387 23.9867C30.2515 23.6743 30.6755 23.4989 31.1175 23.4991C31.5595 23.4994 31.9834 23.6752 32.2958 23.9879C32.6082 24.3006 32.7836 24.7246 32.7833 25.1666ZM32.8333 28.0666H29.5V38.5H32.8333V28.0666ZM38.1 28.0666H34.7833V38.5H38.0667V33.025C38.0667 29.975 42.0417 29.6916 42.0417 33.025V38.5H45.3333V31.8916C45.3333 26.75 39.45 26.9416 38.0667 29.4666L38.1 28.0666Z" fill="#7C5AC7"/>
</g>
<defs>
<filter id="filter0_d_88_24" x="0" y="0" width="74" height="74" filterUnits="userSpaceOnUse" color-interpolation-filters="sRGB">
<feFlood flood-opacity="0" result="BackgroundImageFix"/>
<feColorMatrix in="SourceAlpha" type="matrix" values="0 0 0 0 0 0 0 0 0 0 0 0 0 0 0 0 0 0 127 0" result="hardAlpha"/>
<feMorphology radius="2" operator="dilate" in="SourceAlpha" result="effect1_dropShadow_88_24"/>
<feOffset dy="6"/>
<feGaussianBlur stdDeviation="5"/>
<feColorMatrix type="matrix" values="0 0 0 0 0 0 0 0 0 0 0 0 0 0 0 0 0 0 0.15 0"/>
<feBlend mode="normal" in2="BackgroundImageFix" result="effect1_dropShadow_88_24"/>
<feBlend mode="normal" in="SourceGraphic" in2="effect1_dropShadow_88_24" result="shape"/>
</filter>
<clipPath id="clip0_88_24">
<rect width="20" height="20" fill="white" transform="translate(27 21)"/>
</clipPath>
</defs>
</svg>
