<svg width="74" height="74" viewBox="0 0 74 74" fill="none" xmlns="http://www.w3.org/2000/svg">
<g filter="url(#filter0_d_88_72)">
<circle cx="37" cy="31" r="25" fill="white"/>
</g>
<path d="M31.2308 28.8809C31.2308 28.2325 31.3441 27.62 31.5675 27.0484C31.7808 26.4931 32.0979 25.9835 32.5016 25.5467C32.9046 25.1156 33.3657 24.7429 33.8716 24.4392C34.3907 24.1252 34.9527 23.8883 35.54 23.7359C36.1343 23.5798 36.7463 23.5011 37.3608 23.5017C38.31 23.5017 39.1933 23.7025 40.0125 24.1025C40.8209 24.4953 41.5091 25.0979 42.005 25.8475C42.5166 26.61 42.7708 27.4725 42.7708 28.4342C42.7708 29.0109 42.7141 29.575 42.5983 30.1267C42.4846 30.6781 42.3038 31.2134 42.06 31.7209C41.8276 32.2121 41.5237 32.6662 41.1583 33.0684C40.791 33.4642 40.3463 33.7802 39.8516 33.9967C39.3146 34.2321 38.7337 34.3505 38.1475 34.3442C37.74 34.3442 37.3333 34.2484 36.9316 34.0559C36.53 33.8642 36.2416 33.6009 36.0683 33.2634C36.0075 33.4975 35.9241 33.8359 35.8133 34.2784C35.7066 34.72 35.635 35.005 35.6033 35.1342C35.57 35.2625 35.5083 35.4767 35.4183 35.7734C35.3573 35.9928 35.279 36.2071 35.1841 36.4142L34.8975 36.9759C34.7735 37.2169 34.6349 37.4501 34.4825 37.6742C34.3316 37.8925 34.145 38.1534 33.9225 38.4534L33.7983 38.4975L33.7158 38.4075C33.6266 37.4634 33.5808 36.8984 33.5808 36.7117C33.5808 36.1592 33.6466 35.5392 33.7766 34.8509C33.9041 34.1634 34.1058 33.2992 34.3766 32.26C34.6475 31.2217 34.8025 30.6109 34.8441 30.43C34.6533 30.0409 34.5566 29.5325 34.5566 28.9075C34.5566 28.4084 34.7125 27.9409 35.025 27.5009C35.3383 27.0625 35.7341 26.8434 36.2141 26.8434C36.5816 26.8434 36.8666 26.965 37.0708 27.2092C37.2758 27.4525 37.3758 27.7592 37.3758 28.1334C37.3758 28.53 37.2441 29.1042 36.9791 29.855C36.7141 30.6067 36.5825 31.1675 36.5825 31.54C36.5825 31.9175 36.7175 32.2334 36.9875 32.4809C37.2539 32.7285 37.6063 32.8627 37.97 32.855C38.3 32.855 38.6058 32.78 38.89 32.6292C39.1697 32.4828 39.4118 32.2738 39.5975 32.0184C40.0018 31.4636 40.2901 30.833 40.445 30.1642C40.525 29.8125 40.5866 29.4784 40.625 29.1642C40.6658 28.8484 40.6833 28.55 40.6833 28.2667C40.6833 27.2275 40.3533 26.4175 39.6975 25.8375C39.0383 25.2575 38.18 24.9692 37.1241 24.9692C35.9233 24.9692 34.9191 25.3575 34.115 26.1367C33.31 26.9134 32.905 27.9009 32.905 29.0984C32.905 29.3625 32.945 29.6175 33.0208 29.8642C33.095 30.11 33.1758 30.3059 33.2633 30.4509C33.35 30.5934 33.4316 30.7325 33.5058 30.8609C33.5808 30.9892 33.62 31.0809 33.62 31.1359C33.62 31.3042 33.5758 31.5234 33.4866 31.7942C33.3941 32.065 33.285 32.2 33.1533 32.2C33.1408 32.2 33.0891 32.1909 32.9991 32.1717C32.6874 32.0787 32.4059 31.9047 32.1833 31.6675C31.947 31.4218 31.7605 31.1325 31.6341 30.8159C31.5081 30.5003 31.41 30.1744 31.3408 29.8417C31.2661 29.5269 31.2291 29.2044 31.2308 28.8809Z" fill="#7D59C3"/>
<defs>
<filter id="filter0_d_88_72" x="0" y="0" width="74" height="74" filterUnits="userSpaceOnUse" color-interpolation-filters="sRGB">
<feFlood flood-opacity="0" result="BackgroundImageFix"/>
<feColorMatrix in="SourceAlpha" type="matrix" values="0 0 0 0 0 0 0 0 0 0 0 0 0 0 0 0 0 0 127 0" result="hardAlpha"/>
<feMorphology radius="2" operator="dilate" in="SourceAlpha" result="effect1_dropShadow_88_72"/>
<feOffset dy="6"/>
<feGaussianBlur stdDeviation="5"/>
<feColorMatrix type="matrix" values="0 0 0 0 0 0 0 0 0 0 0 0 0 0 0 0 0 0 0.15 0"/>
<feBlend mode="normal" in2="BackgroundImageFix" result="effect1_dropShadow_88_72"/>
<feBlend mode="normal" in="SourceGraphic" in2="effect1_dropShadow_88_72" result="shape"/>
</filter>
</defs>
</svg>
