<svg width="74" height="74" viewBox="0 0 74 74" fill="none" xmlns="http://www.w3.org/2000/svg">
<g filter="url(#filter0_d_88_18)">
<circle cx="37" cy="31" r="25" fill="white"/>
</g>
<g clip-path="url(#clip0_88_18)">
<path d="M45.4683 25.7134C44.8321 25.9948 44.1575 26.1796 43.4667 26.2617C44.1948 25.8263 44.7398 25.1409 45 24.3334C44.3167 24.7401 43.5675 25.0251 42.7867 25.1792C42.2622 24.618 41.567 24.2459 40.8091 24.1205C40.0513 23.9952 39.2733 24.1238 38.5961 24.4863C37.9188 24.8487 37.3803 25.4248 37.0643 26.1249C36.7482 26.825 36.6723 27.6099 36.8483 28.3576C35.4626 28.2881 34.1069 27.928 32.8694 27.3006C31.6319 26.6732 30.5401 25.7926 29.665 24.7159C29.3552 25.2479 29.1925 25.8527 29.1933 26.4684C29.1933 27.6767 29.8083 28.7442 30.7433 29.3692C30.19 29.3518 29.6489 29.2024 29.165 28.9334V28.9767C29.1652 29.7815 29.4436 30.5614 29.9532 31.1843C30.4628 31.8071 31.1721 32.2346 31.9608 32.3942C31.4472 32.5334 30.9086 32.5539 30.3858 32.4542C30.6082 33.1469 31.0417 33.7527 31.6255 34.1868C32.2093 34.6209 32.9143 34.8616 33.6417 34.8751C32.9187 35.4428 32.091 35.8625 31.2057 36.1102C30.3205 36.3579 29.3951 36.4286 28.4825 36.3184C30.0756 37.3429 31.9301 37.8868 33.8242 37.8851C40.235 37.8851 43.7408 32.5742 43.7408 27.9684C43.7408 27.8184 43.7367 27.6667 43.73 27.5184C44.4124 27.0252 45.0013 26.4142 45.4692 25.7142L45.4683 25.7134Z" fill="#7C5AC7"/>
</g>
<defs>
<filter id="filter0_d_88_18" x="0" y="0" width="74" height="74" filterUnits="userSpaceOnUse" color-interpolation-filters="sRGB">
<feFlood flood-opacity="0" result="BackgroundImageFix"/>
<feColorMatrix in="SourceAlpha" type="matrix" values="0 0 0 0 0 0 0 0 0 0 0 0 0 0 0 0 0 0 127 0" result="hardAlpha"/>
<feMorphology radius="2" operator="dilate" in="SourceAlpha" result="effect1_dropShadow_88_18"/>
<feOffset dy="6"/>
<feGaussianBlur stdDeviation="5"/>
<feColorMatrix type="matrix" values="0 0 0 0 0 0 0 0 0 0 0 0 0 0 0 0 0 0 0.15 0"/>
<feBlend mode="normal" in2="BackgroundImageFix" result="effect1_dropShadow_88_18"/>
<feBlend mode="normal" in="SourceGraphic" in2="effect1_dropShadow_88_18" result="shape"/>
</filter>
<clipPath id="clip0_88_18">
<rect width="20" height="20" fill="white" transform="translate(27 21)"/>
</clipPath>
</defs>
</svg>
