<svg width="74" height="74" viewBox="0 0 74 74" fill="none" xmlns="http://www.w3.org/2000/svg">
<g filter="url(#filter0_d_88_60)">
<circle cx="37" cy="31" r="25" fill="white"/>
</g>
<g clip-path="url(#clip0_88_60)">
<path d="M44.9525 26.415C45.3333 27.9 45.3333 31 45.3333 31C45.3333 31 45.3333 34.1 44.9525 35.585C44.7408 36.4059 44.1217 37.0517 43.3375 37.27C41.9133 37.6667 37 37.6667 37 37.6667C37 37.6667 32.0892 37.6667 30.6625 37.27C29.875 37.0484 29.2567 36.4034 29.0475 35.585C28.6667 34.1 28.6667 31 28.6667 31C28.6667 31 28.6667 27.9 29.0475 26.415C29.2592 25.5942 29.8783 24.9484 30.6625 24.73C32.0892 24.3334 37 24.3334 37 24.3334C37 24.3334 41.9133 24.3334 43.3375 24.73C44.125 24.9517 44.7433 25.5967 44.9525 26.415ZM35.3333 33.9167L40.3333 31L35.3333 28.0834V33.9167Z" fill="#7D59C3"/>
</g>
<defs>
<filter id="filter0_d_88_60" x="0" y="0" width="74" height="74" filterUnits="userSpaceOnUse" color-interpolation-filters="sRGB">
<feFlood flood-opacity="0" result="BackgroundImageFix"/>
<feColorMatrix in="SourceAlpha" type="matrix" values="0 0 0 0 0 0 0 0 0 0 0 0 0 0 0 0 0 0 127 0" result="hardAlpha"/>
<feMorphology radius="2" operator="dilate" in="SourceAlpha" result="effect1_dropShadow_88_60"/>
<feOffset dy="6"/>
<feGaussianBlur stdDeviation="5"/>
<feColorMatrix type="matrix" values="0 0 0 0 0 0 0 0 0 0 0 0 0 0 0 0 0 0 0.15 0"/>
<feBlend mode="normal" in2="BackgroundImageFix" result="effect1_dropShadow_88_60"/>
<feBlend mode="normal" in="SourceGraphic" in2="effect1_dropShadow_88_60" result="shape"/>
</filter>
<clipPath id="clip0_88_60">
<rect width="20" height="20" fill="white" transform="translate(27 21)"/>
</clipPath>
</defs>
</svg>
